<svg width="3146" height="1209" viewBox="0 0 3146 1209" fill="none" xmlns="http://www.w3.org/2000/svg">
<g filter="url(#filter0_d_3508_74)">
<path d="M810.32 281.629V77H847.25V250.555H937.035V281.629H810.32Z" fill="#070224"/>
<path d="M1035.18 284.626C1019.85 284.626 1006.61 281.429 995.466 275.034C984.383 268.573 975.856 259.447 969.884 247.657C963.911 235.8 960.925 221.845 960.925 205.792C960.925 190.005 963.911 176.15 969.884 164.227C975.922 152.237 984.35 142.911 995.167 136.25C1005.98 129.523 1018.69 126.159 1033.29 126.159C1042.71 126.159 1051.61 127.691 1059.97 130.755C1068.4 133.752 1075.83 138.415 1082.26 144.743C1088.77 151.071 1093.88 159.131 1097.59 168.923C1101.31 178.648 1103.17 190.238 1103.17 203.694V214.785H977.847V190.405H1068.63C1068.56 183.477 1067.07 177.316 1064.15 171.92C1061.23 166.458 1057.15 162.162 1051.91 159.031C1046.73 155.901 1040.69 154.335 1033.79 154.335C1026.42 154.335 1019.95 156.134 1014.38 159.731C1008.8 163.261 1004.46 167.924 1001.34 173.719C998.286 179.447 996.726 185.742 996.66 192.603V213.885C996.66 222.811 998.286 230.471 1001.54 236.866C1004.79 243.194 1009.33 248.057 1015.17 251.454C1021.01 254.784 1027.85 256.45 1035.68 256.45C1040.92 256.45 1045.67 255.717 1049.91 254.252C1054.16 252.719 1057.84 250.488 1060.96 247.557C1064.08 244.626 1066.44 240.996 1068.03 236.666L1101.68 240.463C1099.55 249.389 1095.5 257.182 1089.53 263.843C1083.63 270.438 1076.06 275.567 1066.84 279.231C1057.61 282.828 1047.06 284.626 1035.18 284.626Z" fill="#070224"/>
<path d="M1210 128.157V156.134H1122.11V128.157H1210ZM1143.81 91.3879H1179.84V235.467C1179.84 240.33 1180.57 244.06 1182.03 246.658C1183.56 249.189 1185.55 250.921 1188 251.854C1190.46 252.786 1193.18 253.252 1196.16 253.252C1198.42 253.252 1200.48 253.086 1202.34 252.753C1204.26 252.42 1205.72 252.12 1206.72 251.854L1212.79 280.13C1210.86 280.796 1208.11 281.529 1204.53 282.328C1201.01 283.127 1196.69 283.594 1191.59 283.727C1182.56 283.993 1174.43 282.628 1167.2 279.63C1159.96 276.566 1154.22 271.837 1149.98 265.442C1145.8 259.047 1143.74 251.054 1143.81 241.462V91.3879Z" fill="#070224"/>
<path d="M1277.81 77V97.3829C1277.81 103.245 1276.68 109.34 1274.43 115.668C1272.24 121.929 1269.22 127.924 1265.37 133.653C1261.52 139.314 1257.14 144.177 1252.23 148.24L1235.51 137.349C1239.16 131.821 1242.34 125.859 1245.06 119.464C1247.78 113.003 1249.14 105.709 1249.14 97.5828V77H1277.81Z" fill="#070224"/>
<path d="M1408.06 168.723L1375.21 172.32C1374.28 168.99 1372.66 165.859 1370.34 162.928C1368.08 159.997 1365.03 157.632 1361.18 155.834C1357.33 154.035 1352.62 153.136 1347.04 153.136C1339.54 153.136 1333.24 154.768 1328.13 158.032C1323.09 161.296 1320.6 165.526 1320.66 170.721C1320.6 175.184 1322.22 178.815 1325.54 181.612C1328.93 184.41 1334.5 186.708 1342.26 188.507L1368.34 194.102C1382.81 197.233 1393.56 202.195 1400.6 208.989C1407.7 215.784 1411.28 224.676 1411.35 235.667C1411.28 245.326 1408.46 253.852 1402.88 261.246C1397.38 268.573 1389.71 274.301 1379.89 278.431C1370.07 282.561 1358.79 284.626 1346.05 284.626C1327.33 284.626 1312.27 280.696 1300.86 272.836C1289.44 264.909 1282.64 253.885 1280.45 239.764L1315.59 236.366C1317.18 243.294 1320.56 248.523 1325.74 252.053C1330.92 255.584 1337.65 257.349 1345.95 257.349C1354.51 257.349 1361.38 255.584 1366.55 252.053C1371.79 248.523 1374.42 244.16 1374.42 238.964C1374.42 234.568 1372.72 230.938 1369.34 228.073C1366.02 225.209 1360.85 223.011 1353.81 221.479L1327.73 215.984C1313.07 212.919 1302.22 207.757 1295.18 200.497C1288.15 193.169 1284.66 183.91 1284.73 172.72C1284.66 163.261 1287.22 155.068 1292.39 148.14C1297.64 141.146 1304.9 135.751 1314.19 131.954C1323.55 128.091 1334.33 126.159 1346.54 126.159C1364.46 126.159 1378.56 129.989 1388.85 137.649C1399.2 145.309 1405.61 155.667 1408.06 168.723Z" fill="#070224"/>
<path d="M1503.22 108.074V77H1665.87V108.074H1602.86V281.629H1566.23V108.074H1503.22Z" fill="#070224"/>
<path d="M1718.83 284.726C1709.14 284.726 1700.41 282.994 1692.65 279.53C1684.95 276 1678.84 270.804 1674.33 263.943C1669.89 257.082 1667.66 248.623 1667.66 238.565C1667.66 229.905 1669.26 222.745 1672.44 217.083C1675.63 211.421 1679.97 206.891 1685.48 203.494C1690.99 200.097 1697.19 197.532 1704.09 195.8C1711.06 194.002 1718.26 192.703 1725.69 191.904C1734.65 190.971 1741.92 190.139 1747.49 189.406C1753.07 188.607 1757.12 187.408 1759.64 185.809C1762.23 184.144 1763.52 181.579 1763.52 178.115V177.516C1763.52 169.989 1761.3 164.16 1756.85 160.03C1752.4 155.901 1746 153.836 1737.64 153.836C1728.81 153.836 1721.81 155.767 1716.64 159.631C1711.53 163.494 1708.08 168.057 1706.28 173.319L1672.64 168.523C1675.29 159.198 1679.67 151.404 1685.78 145.143C1691.88 138.815 1699.35 134.086 1708.18 130.955C1717 127.757 1726.76 126.159 1737.44 126.159C1744.81 126.159 1752.14 127.025 1759.44 128.757C1766.74 130.489 1773.41 133.353 1779.45 137.349C1785.49 141.279 1790.33 146.642 1793.98 153.436C1797.7 160.23 1799.55 168.723 1799.55 178.915V281.629H1764.91V260.546H1763.72C1761.53 264.809 1758.44 268.806 1754.46 272.536C1750.55 276.2 1745.6 279.164 1739.63 281.429C1733.72 283.627 1726.79 284.726 1718.83 284.726ZM1728.18 258.148C1735.42 258.148 1741.69 256.716 1747 253.852C1752.31 250.921 1756.39 247.058 1759.24 242.262C1762.16 237.466 1763.62 232.237 1763.62 226.575V208.49C1762.49 209.422 1760.57 210.288 1757.85 211.088C1755.19 211.887 1752.21 212.586 1748.89 213.186C1745.57 213.785 1742.28 214.318 1739.03 214.785C1735.78 215.251 1732.96 215.65 1730.57 215.984C1725.2 216.716 1720.39 217.915 1716.14 219.581C1711.89 221.246 1708.54 223.577 1706.09 226.575C1703.63 229.506 1702.4 233.302 1702.4 237.965C1702.4 244.626 1704.82 249.655 1709.67 253.053C1714.51 256.45 1720.68 258.148 1728.18 258.148Z" fill="#070224"/>
<path d="M1871.82 77V281.629H1835.79V77H1871.82Z" fill="#070224"/>
<path d="M1941.72 233.469L1941.62 189.805H1947.4L2002.34 128.157H2044.45L1976.86 203.694H1969.39L1941.72 233.469ZM1908.87 281.629V77H1944.91V281.629H1908.87ZM2004.83 281.629L1955.06 211.787L1979.35 186.308L2047.93 281.629H2004.83Z" fill="#070224"/>
</g>
<g filter="url(#filter1_i_3508_74)">
<path d="M985.057 583.036C983.005 565.866 974.539 552.565 959.661 543.133C944.783 533.581 926.056 528.805 903.482 528.805C887.321 528.805 873.341 531.223 861.541 536.06C849.741 540.776 840.57 547.305 834.028 555.648C827.615 563.871 824.409 573.242 824.409 583.761C824.409 592.588 826.589 600.206 830.95 606.614C835.439 613.023 841.275 618.404 848.458 622.757C855.769 626.989 863.593 630.556 871.93 633.458C880.267 636.239 888.283 638.536 895.979 640.35L934.457 649.781C947.027 652.683 959.917 656.613 973.128 661.571C986.339 666.528 998.588 673.058 1009.88 681.159C1021.16 689.26 1030.27 699.296 1037.2 711.267C1044.25 723.238 1047.78 737.566 1047.78 754.253C1047.78 775.292 1042.01 793.973 1030.46 810.297C1019.05 826.621 1002.44 839.498 980.632 848.93C958.955 858.361 932.726 863.077 901.943 863.077C872.443 863.077 846.919 858.663 825.371 849.836C803.823 841.01 786.956 828.495 774.772 812.292C762.587 795.968 755.853 776.622 754.57 754.253H814.212C815.366 767.674 819.984 778.859 828.064 787.807C836.273 796.633 846.726 803.223 859.424 807.576C872.25 811.808 886.295 813.924 901.558 813.924C918.361 813.924 933.303 811.446 946.386 806.488C959.597 801.41 969.986 794.397 977.553 785.449C985.121 776.38 988.905 765.8 988.905 753.708C988.905 742.705 985.57 733.697 978.9 726.684C972.359 719.671 963.445 713.867 952.158 709.272C940.999 704.677 928.365 700.626 914.256 697.12L867.697 685.149C836.145 677.048 811.134 665.138 792.664 649.418C774.323 633.699 765.152 612.902 765.152 587.026C765.152 565.624 771.308 546.942 783.622 530.981C795.935 515.021 812.609 502.627 833.644 493.8C854.679 484.852 878.407 480.378 904.829 480.378C931.507 480.378 955.044 484.792 975.437 493.618C995.959 502.445 1012.12 514.597 1023.92 530.075C1035.72 545.431 1041.88 563.085 1042.39 583.036H985.057Z" fill="#070224"/>
<path d="M1238.68 862.533C1210.97 862.533 1186.8 856.547 1166.15 844.577C1145.5 832.606 1129.46 815.859 1118.05 794.336C1106.63 772.813 1100.93 747.663 1100.93 718.885C1100.93 689.986 1106.63 664.714 1118.05 643.07C1129.46 621.426 1145.5 604.619 1166.15 592.649C1186.8 580.678 1210.97 574.693 1238.68 574.693C1266.38 574.693 1290.56 580.678 1311.21 592.649C1331.86 604.619 1347.89 621.426 1359.31 643.07C1370.72 664.714 1376.43 689.986 1376.43 718.885C1376.43 747.663 1370.72 772.813 1359.31 794.336C1347.89 815.859 1331.86 832.606 1311.21 844.577C1290.56 856.547 1266.38 862.533 1238.68 862.533ZM1238.87 817.008C1256.83 817.008 1271.71 812.534 1283.51 803.586C1295.31 794.638 1304.03 782.728 1309.67 767.856C1315.44 752.983 1318.33 736.599 1318.33 718.703C1318.33 700.929 1315.44 684.605 1309.67 669.732C1304.03 654.739 1295.31 642.708 1283.51 633.639C1271.71 624.57 1256.83 620.036 1238.87 620.036C1220.79 620.036 1205.78 624.57 1193.85 633.639C1182.05 642.708 1173.26 654.739 1167.49 669.732C1161.85 684.605 1159.03 700.929 1159.03 718.703C1159.03 736.599 1161.85 752.983 1167.49 767.856C1173.26 782.728 1182.05 794.638 1193.85 803.586C1205.78 812.534 1220.79 817.008 1238.87 817.008Z" fill="#070224"/>
<path d="M1498.17 485.457V856.91H1440.64V485.457H1498.17Z" fill="#070224"/>
<path d="M1762.76 741.375V578.32H1820.47V856.91H1763.91V808.665H1760.83C1754.03 823.537 1743.13 835.931 1728.13 845.846C1713.25 855.64 1694.71 860.538 1672.52 860.538C1653.54 860.538 1636.74 856.608 1622.12 848.748C1607.62 840.768 1596.21 828.978 1587.87 813.38C1579.66 797.782 1575.56 778.496 1575.56 755.522V578.32H1633.08V748.993C1633.08 767.976 1638.66 783.091 1649.82 794.336C1660.98 805.581 1675.47 811.204 1693.3 811.204C1704.08 811.204 1714.79 808.665 1725.43 803.586C1736.21 798.508 1745.12 790.83 1752.17 780.552C1759.36 770.274 1762.88 757.215 1762.76 741.375Z" fill="#070224"/>
<path d="M2035.71 578.32V621.85H1874.3V578.32H2035.71ZM1917.58 511.574H1975.11V775.11C1975.11 785.63 1976.78 793.55 1980.11 798.87C1983.45 804.07 1987.74 807.637 1993 809.572C1998.39 811.385 2004.23 812.292 2010.51 812.292C2015.13 812.292 2019.17 811.99 2022.63 811.385C2026.09 810.781 2028.79 810.297 2030.71 809.934L2041.1 854.734C2037.77 855.943 2033.02 857.152 2026.86 858.361C2020.71 859.691 2013.01 860.417 2003.78 860.538C1988.64 860.779 1974.53 858.24 1961.45 852.92C1948.37 847.6 1937.79 839.377 1929.7 828.253C1921.62 817.129 1917.58 803.163 1917.58 786.356V511.574Z" fill="#070224"/>
<path d="M2099.35 856.91V578.32H2156.87V856.91H2099.35ZM2128.4 535.334C2118.39 535.334 2109.8 532.191 2102.62 525.903C2095.56 519.494 2092.04 511.877 2092.04 503.05C2092.04 494.102 2095.56 486.484 2102.62 480.197C2109.8 473.788 2118.39 470.584 2128.4 470.584C2138.4 470.584 2146.93 473.788 2153.99 480.197C2161.17 486.484 2164.76 494.102 2164.76 503.05C2164.76 511.877 2161.17 519.494 2153.99 525.903C2146.93 532.191 2138.4 535.334 2128.4 535.334Z" fill="#070224"/>
<path d="M2358.74 862.533C2331.04 862.533 2306.86 856.547 2286.21 844.577C2265.56 832.606 2249.53 815.859 2238.11 794.336C2226.7 772.813 2220.99 747.663 2220.99 718.885C2220.99 689.986 2226.7 664.714 2238.11 643.07C2249.53 621.426 2265.56 604.619 2286.21 592.649C2306.86 580.678 2331.04 574.693 2358.74 574.693C2386.45 574.693 2410.62 580.678 2431.27 592.649C2451.92 604.619 2467.96 621.426 2479.37 643.07C2490.79 664.714 2496.49 689.986 2496.49 718.885C2496.49 747.663 2490.79 772.813 2479.37 794.336C2467.96 815.859 2451.92 832.606 2431.27 844.577C2410.62 856.547 2386.45 862.533 2358.74 862.533ZM2358.93 817.008C2376.89 817.008 2391.77 812.534 2403.57 803.586C2415.37 794.638 2424.09 782.728 2429.73 767.856C2435.51 752.983 2438.39 736.599 2438.39 718.703C2438.39 700.929 2435.51 684.605 2429.73 669.732C2424.09 654.739 2415.37 642.708 2403.57 633.639C2391.77 624.57 2376.89 620.036 2358.93 620.036C2340.85 620.036 2325.84 624.57 2313.91 633.639C2302.11 642.708 2293.33 654.739 2287.56 669.732C2281.91 684.605 2279.09 700.929 2279.09 718.703C2279.09 736.599 2281.91 752.983 2287.56 767.856C2293.33 782.728 2302.11 794.638 2313.91 803.586C2325.84 812.534 2340.85 817.008 2358.93 817.008Z" fill="#070224"/>
<path d="M2618.23 691.497V856.91H2560.7V578.32H2615.92V623.663H2619.58C2626.37 608.912 2637.02 597.062 2651.51 588.114C2666.14 579.166 2684.54 574.693 2706.73 574.693C2726.87 574.693 2744.5 578.683 2759.64 586.663C2774.77 594.523 2786.51 606.252 2794.85 621.85C2803.18 637.448 2807.35 656.734 2807.35 679.708V856.91H2749.83V686.237C2749.83 666.044 2744.25 650.265 2733.09 638.899C2721.93 627.412 2706.6 621.668 2687.11 621.668C2673.77 621.668 2661.9 624.389 2651.51 629.83C2641.25 635.271 2633.11 643.252 2627.08 653.771C2621.18 664.17 2618.23 676.745 2618.23 691.497Z" fill="#070224"/>
<path d="M3105.95 646.335L3053.81 655.041C3051.63 648.753 3048.16 642.768 3043.42 637.085C3038.8 631.402 3032.52 626.747 3024.56 623.119C3016.61 619.492 3006.67 617.678 2994.74 617.678C2978.45 617.678 2964.86 621.124 2953.96 628.016C2943.05 634.788 2937.6 643.554 2937.6 654.316C2937.6 663.626 2941.26 671.123 2948.57 676.806C2955.88 682.489 2967.68 687.144 2983.97 690.772L3030.91 700.929C3058.1 706.853 3078.37 715.983 3091.71 728.316C3105.05 740.649 3111.72 756.671 3111.72 776.38C3111.72 793.066 3106.59 807.939 3096.33 820.998C3086.19 833.936 3072.02 844.093 3053.81 851.469C3035.72 858.845 3014.75 862.533 2990.9 862.533C2957.8 862.533 2930.8 855.882 2909.9 842.582C2888.99 829.16 2876.16 810.116 2871.42 785.449L2927.02 777.468C2930.48 791.132 2937.6 801.47 2948.38 808.483C2959.15 815.375 2973.19 818.822 2990.51 818.822C3009.36 818.822 3024.44 815.134 3035.72 807.758C3047.01 800.261 3052.65 791.132 3052.65 780.37C3052.65 771.664 3049.19 764.349 3042.26 758.424C3035.47 752.499 3025.01 748.025 3010.9 745.002L2960.88 734.664C2933.31 728.739 2912.91 719.308 2899.7 706.37C2886.62 693.432 2880.08 677.048 2880.08 657.218C2880.08 640.773 2884.95 626.384 2894.7 614.051C2904.45 601.717 2917.91 592.104 2935.1 585.212C2952.29 578.199 2971.98 574.693 2994.17 574.693C3026.1 574.693 3051.24 581.222 3069.58 594.281C3087.92 607.219 3100.05 624.57 3105.95 646.335Z" fill="#070224"/>
</g>
<path d="M61 457.725C61 449.44 67.7157 442.725 76 442.725H366.198H628.039C636.329 442.725 643.047 449.449 643.039 457.738L642.686 847.835C642.678 856.114 635.965 862.821 627.686 862.821H316.356C312.162 862.821 308.159 864.577 305.319 867.663L201.361 980.61C197.06 985.771 188.716 981.767 190.051 975.183L209.185 880.801C211.069 871.509 203.966 862.821 194.484 862.821H76C67.7158 862.821 61 856.106 61 847.821V457.725Z" fill="#BD0A0A"/>
<g filter="url(#filter2_i_3508_74)">
<path d="M563.684 739.717C563.684 751.048 554.498 760.234 543.166 760.234C531.834 760.234 522.648 751.048 522.648 739.717C522.648 728.385 531.834 719.199 543.166 719.199C554.498 719.199 563.684 728.385 563.684 739.717Z" fill="white"/>
</g>
<g filter="url(#filter3_i_3508_74)">
<path d="M169.742 542.697C169.742 541.593 170.638 540.697 171.742 540.697H215.71C216.815 540.697 217.71 541.593 217.71 542.697V716.865C217.71 717.97 218.606 718.865 219.71 718.865H318.5C319.604 718.865 320.5 719.76 320.5 720.865V757.981C320.5 759.085 319.604 759.981 318.5 759.981H171.742C170.638 759.981 169.742 759.085 169.742 757.981V542.697Z" fill="white"/>
</g>
<g filter="url(#filter4_i_3508_74)">
<path d="M339.016 542.697C339.016 541.593 339.911 540.697 341.016 540.697H522.036C523.141 540.697 524.036 541.593 524.036 542.697V579.813C524.036 580.917 523.141 581.813 522.036 581.813H457.52C456.412 581.813 455.515 582.715 455.52 583.823L456.422 757.97C456.428 759.079 455.531 759.98 454.422 759.98H409.542C408.437 759.98 407.542 759.085 407.542 757.98V583.813C407.542 582.708 406.646 581.813 405.542 581.813H341.016C339.911 581.813 339.016 580.917 339.016 579.813V542.697Z" fill="white"/>
</g>
<g filter="url(#filter5_d_3508_74)">
<path d="M754.57 965.85L3115 965.85" stroke="#BD0A0A" stroke-width="5"/>
</g>
<defs>
<filter id="filter0_d_3508_74" x="810.32" y="77" width="1239.61" height="209.727" filterUnits="userSpaceOnUse" color-interpolation-filters="sRGB">
<feFlood flood-opacity="0" result="BackgroundImageFix"/>
<feColorMatrix in="SourceAlpha" type="matrix" values="0 0 0 0 0 0 0 0 0 0 0 0 0 0 0 0 0 0 127 0" result="hardAlpha"/>
<feOffset dx="1" dy="1"/>
<feGaussianBlur stdDeviation="0.5"/>
<feComposite in2="hardAlpha" operator="out"/>
<feColorMatrix type="matrix" values="0 0 0 0 0.101961 0 0 0 0 0.0823529 0 0 0 0 0.247059 0 0 0 0.19 0"/>
<feBlend mode="normal" in2="BackgroundImageFix" result="effect1_dropShadow_3508_74"/>
<feBlend mode="normal" in="SourceGraphic" in2="effect1_dropShadow_3508_74" result="shape"/>
</filter>
<filter id="filter1_i_3508_74" x="754.57" y="470.584" width="2358.15" height="393.492" filterUnits="userSpaceOnUse" color-interpolation-filters="sRGB">
<feFlood flood-opacity="0" result="BackgroundImageFix"/>
<feBlend mode="normal" in="SourceGraphic" in2="BackgroundImageFix" result="shape"/>
<feColorMatrix in="SourceAlpha" type="matrix" values="0 0 0 0 0 0 0 0 0 0 0 0 0 0 0 0 0 0 127 0" result="hardAlpha"/>
<feOffset dx="2" dy="2"/>
<feGaussianBlur stdDeviation="0.5"/>
<feComposite in2="hardAlpha" operator="arithmetic" k2="-1" k3="1"/>
<feColorMatrix type="matrix" values="0 0 0 0 0 0 0 0 0 0 0 0 0 0 0 0 0 0 0.75 0"/>
<feBlend mode="normal" in2="shape" result="effect1_innerShadow_3508_74"/>
</filter>
<filter id="filter2_i_3508_74" x="522.648" y="719.199" width="42.0312" height="42.0352" filterUnits="userSpaceOnUse" color-interpolation-filters="sRGB">
<feFlood flood-opacity="0" result="BackgroundImageFix"/>
<feBlend mode="normal" in="SourceGraphic" in2="BackgroundImageFix" result="shape"/>
<feColorMatrix in="SourceAlpha" type="matrix" values="0 0 0 0 0 0 0 0 0 0 0 0 0 0 0 0 0 0 127 0" result="hardAlpha"/>
<feOffset dx="2" dy="2"/>
<feGaussianBlur stdDeviation="0.5"/>
<feComposite in2="hardAlpha" operator="arithmetic" k2="-1" k3="1"/>
<feColorMatrix type="matrix" values="0 0 0 0 0 0 0 0 0 0 0 0 0 0 0 0 0 0 0.75 0"/>
<feBlend mode="normal" in2="shape" result="effect1_innerShadow_3508_74"/>
</filter>
<filter id="filter3_i_3508_74" x="169.742" y="540.697" width="151.758" height="220.283" filterUnits="userSpaceOnUse" color-interpolation-filters="sRGB">
<feFlood flood-opacity="0" result="BackgroundImageFix"/>
<feBlend mode="normal" in="SourceGraphic" in2="BackgroundImageFix" result="shape"/>
<feColorMatrix in="SourceAlpha" type="matrix" values="0 0 0 0 0 0 0 0 0 0 0 0 0 0 0 0 0 0 127 0" result="hardAlpha"/>
<feOffset dx="2" dy="2"/>
<feGaussianBlur stdDeviation="0.5"/>
<feComposite in2="hardAlpha" operator="arithmetic" k2="-1" k3="1"/>
<feColorMatrix type="matrix" values="0 0 0 0 0 0 0 0 0 0 0 0 0 0 0 0 0 0 0.75 0"/>
<feBlend mode="normal" in2="shape" result="effect1_innerShadow_3508_74"/>
</filter>
<filter id="filter4_i_3508_74" x="339.016" y="540.697" width="186.023" height="220.283" filterUnits="userSpaceOnUse" color-interpolation-filters="sRGB">
<feFlood flood-opacity="0" result="BackgroundImageFix"/>
<feBlend mode="normal" in="SourceGraphic" in2="BackgroundImageFix" result="shape"/>
<feColorMatrix in="SourceAlpha" type="matrix" values="0 0 0 0 0 0 0 0 0 0 0 0 0 0 0 0 0 0 127 0" result="hardAlpha"/>
<feOffset dx="2" dy="2"/>
<feGaussianBlur stdDeviation="0.5"/>
<feComposite in2="hardAlpha" operator="arithmetic" k2="-1" k3="1"/>
<feColorMatrix type="matrix" values="0 0 0 0 0 0 0 0 0 0 0 0 0 0 0 0 0 0 0.75 0"/>
<feBlend mode="normal" in2="shape" result="effect1_innerShadow_3508_74"/>
</filter>
<filter id="filter5_d_3508_74" x="754.57" y="963.35" width="2361.03" height="5.6" filterUnits="userSpaceOnUse" color-interpolation-filters="sRGB">
<feFlood flood-opacity="0" result="BackgroundImageFix"/>
<feColorMatrix in="SourceAlpha" type="matrix" values="0 0 0 0 0 0 0 0 0 0 0 0 0 0 0 0 0 0 127 0" result="hardAlpha"/>
<feOffset dx="0.5" dy="0.5"/>
<feGaussianBlur stdDeviation="0.05"/>
<feComposite in2="hardAlpha" operator="out"/>
<feColorMatrix type="matrix" values="0 0 0 0 0 0 0 0 0 0 0 0 0 0 0 0 0 0 0.25 0"/>
<feBlend mode="normal" in2="BackgroundImageFix" result="effect1_dropShadow_3508_74"/>
<feBlend mode="normal" in="SourceGraphic" in2="effect1_dropShadow_3508_74" result="shape"/>
</filter>
</defs>
</svg>
