<svg width="2365" height="719" viewBox="0 0 2365 719" fill="none" xmlns="http://www.w3.org/2000/svg">
<g filter="url(#filter0_d_3518_72)">
<path d="M551.594 127.249V0H574.623V107.925H630.615V127.249H551.594Z" fill="white"/>
<path d="M691.821 129.113C682.261 129.113 674.005 127.125 667.053 123.148C660.142 119.13 654.824 113.455 651.1 106.124C647.375 98.7504 645.513 90.0724 645.513 80.0897C645.513 70.2727 647.375 61.6568 651.1 54.2423C654.865 46.7863 660.121 40.9872 666.867 36.845C673.612 32.6614 681.537 30.5695 690.641 30.5695C696.518 30.5695 702.063 31.5222 707.277 33.4277C712.533 35.2917 717.168 38.1912 721.182 42.1263C725.238 46.0614 728.424 51.0735 730.742 57.1625C733.059 63.2102 734.218 70.4176 734.218 78.7849V85.6817H656.066V70.5212H712.678C712.636 66.2133 711.705 62.3817 709.884 59.0265C708.064 55.6299 705.518 52.9582 702.249 51.0114C699.021 49.0645 695.255 48.0911 690.952 48.0911C686.358 48.0911 682.323 49.2095 678.847 51.4463C675.371 53.6417 672.66 56.5412 670.715 60.1449C668.812 63.7072 667.839 67.6216 667.798 71.8881V85.1225C667.798 90.6731 668.812 95.4366 670.839 99.4131C672.867 103.348 675.702 106.372 679.344 108.485C682.985 110.556 687.248 111.591 692.131 111.591C695.4 111.591 698.359 111.136 701.008 110.224C703.656 109.272 705.953 107.884 707.898 106.061C709.843 104.239 711.312 101.981 712.305 99.2889L733.287 101.65C731.962 107.2 729.438 112.047 725.713 116.189C722.03 120.29 717.313 123.479 711.56 125.758C705.808 127.994 699.228 129.113 691.821 129.113Z" fill="white"/>
<path d="M800.839 31.8122V49.2095H746.027V31.8122H800.839ZM759.56 8.94718H782.031V98.5432C782.031 101.567 782.486 103.887 783.396 105.502C784.348 107.076 785.59 108.153 787.121 108.733C788.652 109.313 790.349 109.603 792.211 109.603C793.618 109.603 794.901 109.499 796.06 109.292C797.26 109.085 798.17 108.899 798.791 108.733L802.577 126.317C801.377 126.731 799.66 127.187 797.425 127.684C795.232 128.181 792.542 128.471 789.356 128.554C783.727 128.719 778.658 127.87 774.147 126.006C769.637 124.101 766.057 121.16 763.408 117.183C760.801 113.207 759.518 108.236 759.56 102.271V8.94718Z" fill="white"/>
<path d="M843.128 0V12.6752C843.128 16.3203 842.424 20.1104 841.017 24.0456C839.652 27.9392 837.769 31.6672 835.369 35.2295C832.968 38.7504 830.237 41.7742 827.175 44.301L816.746 37.5284C819.022 34.0904 821.009 30.3831 822.705 26.4066C824.402 22.3887 825.25 17.8529 825.25 12.7994V0H843.128Z" fill="white"/>
<path d="M924.353 57.0383L903.868 59.2751C903.289 57.204 902.275 55.2571 900.826 53.4346C899.419 51.612 897.516 50.1415 895.115 49.0231C892.715 47.9047 889.777 47.3455 886.301 47.3455C881.625 47.3455 877.693 48.3603 874.507 50.39C871.362 52.4197 869.81 55.05 869.851 58.2809C869.81 61.0562 870.824 63.3137 872.893 65.0535C875.003 66.7932 878.479 68.2223 883.321 69.3407L899.585 72.8201C908.606 74.767 915.311 77.8529 919.697 82.078C924.125 86.303 926.36 91.8329 926.401 98.6675C926.36 104.674 924.601 109.976 921.125 114.574C917.69 119.13 912.91 122.692 906.786 125.261C900.661 127.829 893.626 129.113 885.68 129.113C874.01 129.113 864.616 126.669 857.498 121.781C850.38 116.852 846.138 109.996 844.773 101.215L866.685 99.1025C867.678 103.41 869.789 106.662 873.017 108.857C876.245 111.053 880.445 112.15 885.618 112.15C890.956 112.15 895.24 111.053 898.468 108.857C901.737 106.662 903.371 103.949 903.371 100.718C903.371 97.9841 902.316 95.7265 900.206 93.9454C898.136 92.1642 894.909 90.7973 890.522 89.8446L874.258 86.4273C865.113 84.5219 858.347 81.3116 853.96 76.7966C849.573 72.2402 847.401 66.4825 847.442 59.5236C847.401 53.6417 848.994 48.5467 852.222 44.2388C855.491 39.8895 860.023 36.5343 865.816 34.1733C871.651 31.7708 878.376 30.5695 885.991 30.5695C897.164 30.5695 905.958 32.9513 912.372 37.7149C918.828 42.4784 922.822 48.9195 924.353 57.0383Z" fill="white"/>
<path d="M983.696 19.3234V0H1085.13V19.3234H1045.83V127.249H1022.99V19.3234H983.696Z" fill="white"/>
<path d="M1118.15 129.175C1112.11 129.175 1106.67 128.098 1101.82 125.944C1097.02 123.749 1093.22 120.518 1090.4 116.251C1087.63 111.985 1086.24 106.724 1086.24 100.469C1086.24 95.0845 1087.24 90.6316 1089.22 87.1107C1091.21 83.5899 1093.92 80.7732 1097.36 78.6606C1100.79 76.5481 1104.66 74.9533 1108.96 73.8764C1113.31 72.758 1117.8 71.9502 1122.43 71.4532C1128.02 70.8733 1132.55 70.3555 1136.03 69.8999C1139.5 69.4028 1142.03 68.6572 1143.6 67.6631C1145.21 66.6275 1146.02 65.0328 1146.02 62.8788V62.506C1146.02 57.8253 1144.64 54.2009 1141.86 51.6327C1139.09 49.0645 1135.1 47.7804 1129.88 47.7804C1124.38 47.7804 1120.01 48.9817 1116.78 51.3842C1113.6 53.7866 1111.45 56.6241 1110.33 59.8964L1089.35 56.914C1091 51.1149 1093.73 46.2685 1097.54 42.3748C1101.35 38.4397 1106 35.4988 1111.51 33.5519C1117.01 31.5637 1123.1 30.5695 1129.76 30.5695C1134.35 30.5695 1138.92 31.108 1143.48 32.185C1148.03 33.262 1152.19 35.0431 1155.95 37.5284C1159.72 39.9724 1162.74 43.3068 1165.02 47.5319C1167.33 51.757 1168.49 57.0383 1168.49 63.3759V127.249H1146.89V114.139H1146.15C1144.78 116.79 1142.86 119.275 1140.37 121.595C1137.93 123.873 1134.85 125.716 1131.12 127.125C1127.44 128.491 1123.12 129.175 1118.15 129.175ZM1123.99 112.647C1128.5 112.647 1132.41 111.757 1135.72 109.976C1139.03 108.153 1141.57 105.751 1143.35 102.768C1145.17 99.7859 1146.08 96.5343 1146.08 93.0134V81.7673C1145.38 82.3472 1144.18 82.8857 1142.48 83.3828C1140.83 83.8798 1138.97 84.3148 1136.9 84.6876C1134.83 85.0604 1132.78 85.3917 1130.75 85.6817C1128.72 85.9716 1126.96 86.2202 1125.47 86.4273C1122.12 86.8829 1119.12 87.6285 1116.47 88.6641C1113.83 89.6996 1111.74 91.1494 1110.2 93.0134C1108.67 94.836 1107.91 97.197 1107.91 100.097C1107.91 104.239 1109.42 107.366 1112.44 109.479C1115.46 111.591 1119.31 112.647 1123.99 112.647Z" fill="white"/>
<path d="M1213.56 0V127.249H1191.09V0H1213.56Z" fill="white"/>
<path d="M1257.15 97.3006L1257.09 70.1484H1260.69L1294.95 31.8122H1321.21L1279.06 78.7849H1274.41L1257.15 97.3006ZM1236.67 127.249V0H1259.14V127.249H1236.67ZM1296.51 127.249L1265.47 83.8177L1280.62 67.9737L1323.38 127.249H1296.51Z" fill="white"/>
</g>
<g filter="url(#filter1_i_3518_72)">
<path d="M679.377 354.745C677.752 341.147 671.048 330.614 659.266 323.145C647.483 315.58 632.654 311.798 614.777 311.798C601.979 311.798 590.908 313.713 581.563 317.543C572.218 321.278 564.956 326.449 559.776 333.056C554.697 339.567 552.158 346.988 552.158 355.319C552.158 362.309 553.884 368.342 557.338 373.417C560.893 378.492 565.514 382.753 571.203 386.2C576.992 389.552 583.188 392.377 589.79 394.675C596.392 396.877 602.741 398.697 608.835 400.133L639.307 407.602C649.261 409.9 659.469 413.012 669.931 416.938C680.393 420.864 690.093 426.035 699.031 432.451C707.97 438.866 715.181 446.814 720.666 456.294C726.253 465.774 729.046 477.121 729.046 490.335C729.046 506.997 724.475 521.791 715.334 534.718C706.294 547.645 693.14 557.843 675.873 565.312C658.707 572.781 637.936 576.516 613.558 576.516C590.197 576.516 569.984 573.02 552.92 566.03C535.855 559.04 522.499 549.129 512.849 536.298C503.2 523.371 497.867 508.05 496.852 490.335H544.083C544.997 500.964 548.653 509.821 555.053 516.907C561.553 523.898 569.831 529.116 579.887 532.564C590.044 535.915 601.166 537.591 613.254 537.591C626.559 537.591 638.393 535.628 648.753 531.702C659.215 527.68 667.442 522.126 673.435 515.04C679.428 507.858 682.424 499.48 682.424 489.904C682.424 481.19 679.783 474.057 674.502 468.503C669.321 462.949 662.262 458.353 653.324 454.714C644.487 451.075 634.482 447.867 623.309 445.09L586.438 435.611C561.452 429.195 541.645 419.763 527.019 407.315C512.494 394.866 505.231 378.396 505.231 357.904C505.231 340.956 510.107 326.161 519.858 313.522C529.609 300.882 542.813 291.067 559.471 284.077C576.129 276.991 594.92 273.448 615.844 273.448C636.971 273.448 655.609 276.943 671.759 283.933C688.011 290.923 700.809 300.547 710.154 312.803C719.498 324.964 724.374 338.945 724.78 354.745H679.377Z" fill="white"/>
<path d="M880.224 576.085C858.284 576.085 839.138 571.345 822.785 561.865C806.431 552.385 793.735 539.123 784.695 522.078C775.655 505.034 771.135 485.116 771.135 462.326C771.135 439.441 775.655 419.428 784.695 402.287C793.735 385.147 806.431 371.837 822.785 362.357C839.138 352.877 858.284 348.137 880.224 348.137C902.163 348.137 921.31 352.877 937.663 362.357C954.016 371.837 966.713 385.147 975.753 402.287C984.793 419.428 989.313 439.441 989.313 462.326C989.313 485.116 984.793 505.034 975.753 522.078C966.713 539.123 954.016 552.385 937.663 561.865C921.31 571.345 902.163 576.085 880.224 576.085ZM880.376 540.033C894.596 540.033 906.379 536.49 915.723 529.404C925.068 522.318 931.975 512.886 936.444 501.108C941.015 489.33 943.3 476.355 943.3 462.183C943.3 448.107 941.015 435.18 936.444 423.402C931.975 411.528 925.068 402 915.723 394.818C906.379 387.637 894.596 384.046 880.376 384.046C866.054 384.046 854.171 387.637 844.724 394.818C835.38 402 828.422 411.528 823.851 423.402C819.382 435.18 817.147 448.107 817.147 462.183C817.147 476.355 819.382 489.33 823.851 501.108C828.422 512.886 835.38 522.318 844.724 529.404C854.171 536.49 866.054 540.033 880.376 540.033Z" fill="white"/>
<path d="M1085.72 277.469V571.632H1040.16V277.469H1085.72Z" fill="white"/>
<path d="M1295.25 480.137V351.01H1340.96V571.632H1296.16V533.425H1293.73C1288.34 545.203 1279.71 555.018 1267.82 562.87C1256.04 570.627 1241.36 574.505 1223.79 574.505C1208.76 574.505 1195.45 571.393 1183.87 565.168C1172.4 558.849 1163.36 549.512 1156.75 537.16C1150.25 524.807 1147 509.534 1147 491.341V351.01H1192.56V486.17C1192.56 501.203 1196.98 513.173 1205.81 522.078C1214.65 530.984 1226.13 535.436 1240.25 535.436C1248.78 535.436 1257.26 533.425 1265.69 529.404C1274.22 525.382 1281.28 519.301 1286.87 511.162C1292.56 503.023 1295.35 492.681 1295.25 480.137Z" fill="white"/>
<path d="M1511.41 351.01V385.482H1383.58V351.01H1511.41ZM1417.86 298.153H1463.41V506.853C1463.41 515.184 1464.73 521.456 1467.38 525.669C1470.02 529.787 1473.42 532.611 1477.58 534.144C1481.85 535.58 1486.47 536.298 1491.45 536.298C1495.1 536.298 1498.3 536.059 1501.05 535.58C1503.79 535.101 1505.92 534.718 1507.45 534.431L1515.67 569.908C1513.03 570.866 1509.27 571.824 1504.4 572.781C1499.52 573.834 1493.43 574.409 1486.12 574.505C1474.13 574.696 1462.96 572.685 1452.6 568.472C1442.24 564.259 1433.86 557.747 1427.46 548.938C1421.06 540.128 1417.86 529.068 1417.86 515.758V298.153Z" fill="white"/>
<path d="M1561.8 571.632V351.01H1607.35V571.632H1561.8ZM1584.81 316.969C1576.88 316.969 1570.08 314.479 1564.39 309.5C1558.8 304.425 1556.01 298.392 1556.01 291.402C1556.01 284.316 1558.8 278.283 1564.39 273.304C1570.08 268.229 1576.88 265.691 1584.81 265.691C1592.73 265.691 1599.48 268.229 1605.07 273.304C1610.76 278.283 1613.6 284.316 1613.6 291.402C1613.6 298.392 1610.76 304.425 1605.07 309.5C1599.48 314.479 1592.73 316.969 1584.81 316.969Z" fill="white"/>
<path d="M1767.22 576.085C1745.28 576.085 1726.13 571.345 1709.78 561.865C1693.42 552.385 1680.73 539.123 1671.69 522.078C1662.65 505.034 1658.13 485.116 1658.13 462.326C1658.13 439.441 1662.65 419.428 1671.69 402.287C1680.73 385.147 1693.42 371.837 1709.78 362.357C1726.13 352.877 1745.28 348.137 1767.22 348.137C1789.16 348.137 1808.3 352.877 1824.66 362.357C1841.01 371.837 1853.71 385.147 1862.75 402.287C1871.79 419.428 1876.31 439.441 1876.31 462.326C1876.31 485.116 1871.79 505.034 1862.75 522.078C1853.71 539.123 1841.01 552.385 1824.66 561.865C1808.3 571.345 1789.16 576.085 1767.22 576.085ZM1767.37 540.033C1781.59 540.033 1793.37 536.49 1802.72 529.404C1812.06 522.318 1818.97 512.886 1823.44 501.108C1828.01 489.33 1830.29 476.355 1830.29 462.183C1830.29 448.107 1828.01 435.18 1823.44 423.402C1818.97 411.528 1812.06 402 1802.72 394.818C1793.37 387.637 1781.59 384.046 1767.37 384.046C1753.05 384.046 1741.16 387.637 1731.72 394.818C1722.37 402 1715.42 411.528 1710.84 423.402C1706.38 435.18 1704.14 448.107 1704.14 462.183C1704.14 476.355 1706.38 489.33 1710.84 501.108C1715.42 512.886 1722.37 522.318 1731.72 529.404C1741.16 536.49 1753.05 540.033 1767.37 540.033Z" fill="white"/>
<path d="M1972.71 440.638V571.632H1927.16V351.01H1970.88V386.919H1973.78C1979.16 375.236 1987.59 365.852 1999.07 358.766C2010.65 351.68 2025.22 348.137 2042.8 348.137C2058.74 348.137 2072.71 351.297 2084.69 357.617C2096.68 363.841 2105.97 373.13 2112.58 385.482C2119.18 397.835 2122.48 413.108 2122.48 431.302V571.632H2076.92V436.472C2076.92 420.481 2072.51 407.985 2063.67 398.984C2054.83 389.887 2042.69 385.339 2027.26 385.339C2016.69 385.339 2007.3 387.493 1999.07 391.802C1990.94 396.111 1984.49 402.431 1979.72 410.762C1975.05 418.997 1972.71 428.955 1972.71 440.638Z" fill="white"/>
<path d="M2358.94 404.873L2317.65 411.767C2315.92 406.788 2313.18 402.048 2309.42 397.547C2305.77 393.047 2300.79 389.36 2294.49 386.488C2288.19 383.615 2280.32 382.179 2270.88 382.179C2257.98 382.179 2247.21 384.908 2238.58 390.366C2229.94 395.728 2225.63 402.67 2225.63 411.193C2225.63 418.566 2228.52 424.503 2234.31 429.003C2240.1 433.504 2249.44 437.191 2262.34 440.063L2299.52 448.107C2321.05 452.799 2337.1 460.028 2347.67 469.795C2358.23 479.563 2363.51 492.25 2363.51 507.858C2363.51 521.073 2359.45 532.851 2351.32 543.192C2343.3 553.438 2332.07 561.482 2317.65 567.323C2303.33 573.164 2286.72 576.085 2267.83 576.085C2241.62 576.085 2220.24 570.818 2203.69 560.285C2187.13 549.656 2176.97 534.574 2173.21 515.04L2217.25 508.72C2219.99 519.541 2225.63 527.728 2234.16 533.282C2242.69 538.74 2253.81 541.469 2267.52 541.469C2282.46 541.469 2294.39 538.548 2303.33 532.707C2312.27 526.77 2316.74 519.541 2316.74 511.018C2316.74 504.124 2313.99 498.331 2308.51 493.639C2303.13 488.947 2294.85 485.404 2283.67 483.01L2244.06 474.823C2222.22 470.131 2206.07 462.662 2195.61 452.416C2185.25 442.17 2180.07 429.195 2180.07 413.491C2180.07 400.468 2183.93 389.073 2191.65 379.306C2199.37 369.539 2210.03 361.926 2223.65 356.468C2237.26 350.914 2252.85 348.137 2270.42 348.137C2295.71 348.137 2315.62 353.308 2330.14 363.65C2344.67 373.896 2354.27 387.637 2358.94 404.873Z" fill="white"/>
</g>
<path d="M0 312.273C0 304 6.69887 297.289 14.9723 297.273L200.183 296.932H365.791C374.075 296.932 380.791 303.647 380.791 311.932V548.968C380.791 557.253 374.075 563.968 365.791 563.968H165.496C161.245 563.968 157.192 565.773 154.348 568.933L85.6872 645.211C82.8203 648.654 77.2565 645.96 78.1814 641.575L90.719 582.137C92.6909 572.788 85.5373 564.004 75.9834 564.041L15.0586 564.279C6.75151 564.311 0 557.586 0 549.279V312.273Z" fill="#BD0A0A"/>
<g filter="url(#filter2_i_3518_72)">
<path d="M342.59 489.91C342.59 499.618 334.721 507.487 325.014 507.487C315.307 507.487 307.438 499.618 307.438 489.91C307.438 480.203 315.307 472.334 325.014 472.334C334.721 472.334 342.59 480.203 342.59 489.91Z" fill="white"/>
</g>
<g filter="url(#filter3_i_3518_72)">
<path d="M72.625 355.141C72.625 354.036 73.5204 353.141 74.625 353.141H104.245C105.349 353.141 106.245 354.036 106.245 355.141V476.47C106.245 477.575 107.14 478.47 108.245 478.47H176.286C177.391 478.47 178.286 479.366 178.286 480.47V506.935C178.286 508.039 177.391 508.935 176.286 508.935H125.07H74.625C73.5204 508.935 72.625 508.039 72.625 506.935V355.141Z" fill="white"/>
</g>
<g filter="url(#filter4_i_3518_72)">
<path d="M178.078 356.205C178.078 355.101 178.974 354.205 180.078 354.205H305.727C306.832 354.205 307.727 355.101 307.727 356.205V381.016C307.727 382.121 306.832 383.016 305.727 383.016H261.719C260.611 383.016 259.714 383.918 259.719 385.027L260.345 505.854C260.351 506.963 259.454 507.865 258.345 507.865H228.096C226.992 507.865 226.096 506.969 226.096 505.865V385.016C226.096 383.912 225.201 383.016 224.096 383.016H180.078C178.974 383.016 178.078 382.121 178.078 381.016V356.205Z" fill="white"/>
</g>
<g filter="url(#filter5_d_3518_72)">
<path d="M493.43 714.977L2364 714.978" stroke="#BD0A0A" stroke-width="6"/>
</g>
<defs>
<filter id="filter0_d_3518_72" x="551.594" y="0" width="773.789" height="131.176" filterUnits="userSpaceOnUse" color-interpolation-filters="sRGB">
<feFlood flood-opacity="0" result="BackgroundImageFix"/>
<feColorMatrix in="SourceAlpha" type="matrix" values="0 0 0 0 0 0 0 0 0 0 0 0 0 0 0 0 0 0 127 0" result="hardAlpha"/>
<feOffset dx="1" dy="1"/>
<feGaussianBlur stdDeviation="0.5"/>
<feComposite in2="hardAlpha" operator="out"/>
<feColorMatrix type="matrix" values="0 0 0 0 0.101961 0 0 0 0 0.0823529 0 0 0 0 0.247059 0 0 0 0.19 0"/>
<feBlend mode="normal" in2="BackgroundImageFix" result="effect1_dropShadow_3518_72"/>
<feBlend mode="normal" in="SourceGraphic" in2="effect1_dropShadow_3518_72" result="shape"/>
</filter>
<filter id="filter1_i_3518_72" x="496.852" y="265.691" width="1867.66" height="311.824" filterUnits="userSpaceOnUse" color-interpolation-filters="sRGB">
<feFlood flood-opacity="0" result="BackgroundImageFix"/>
<feBlend mode="normal" in="SourceGraphic" in2="BackgroundImageFix" result="shape"/>
<feColorMatrix in="SourceAlpha" type="matrix" values="0 0 0 0 0 0 0 0 0 0 0 0 0 0 0 0 0 0 127 0" result="hardAlpha"/>
<feOffset dx="2" dy="2"/>
<feGaussianBlur stdDeviation="0.5"/>
<feComposite in2="hardAlpha" operator="arithmetic" k2="-1" k3="1"/>
<feColorMatrix type="matrix" values="0 0 0 0 0 0 0 0 0 0 0 0 0 0 0 0 0 0 0.75 0"/>
<feBlend mode="normal" in2="shape" result="effect1_innerShadow_3518_72"/>
</filter>
<filter id="filter2_i_3518_72" x="307.438" y="472.334" width="36.1562" height="36.1523" filterUnits="userSpaceOnUse" color-interpolation-filters="sRGB">
<feFlood flood-opacity="0" result="BackgroundImageFix"/>
<feBlend mode="normal" in="SourceGraphic" in2="BackgroundImageFix" result="shape"/>
<feColorMatrix in="SourceAlpha" type="matrix" values="0 0 0 0 0 0 0 0 0 0 0 0 0 0 0 0 0 0 127 0" result="hardAlpha"/>
<feOffset dx="2" dy="2"/>
<feGaussianBlur stdDeviation="0.5"/>
<feComposite in2="hardAlpha" operator="arithmetic" k2="-1" k3="1"/>
<feColorMatrix type="matrix" values="0 0 0 0 0 0 0 0 0 0 0 0 0 0 0 0 0 0 0.75 0"/>
<feBlend mode="normal" in2="shape" result="effect1_innerShadow_3518_72"/>
</filter>
<filter id="filter3_i_3518_72" x="72.625" y="353.141" width="106.664" height="156.795" filterUnits="userSpaceOnUse" color-interpolation-filters="sRGB">
<feFlood flood-opacity="0" result="BackgroundImageFix"/>
<feBlend mode="normal" in="SourceGraphic" in2="BackgroundImageFix" result="shape"/>
<feColorMatrix in="SourceAlpha" type="matrix" values="0 0 0 0 0 0 0 0 0 0 0 0 0 0 0 0 0 0 127 0" result="hardAlpha"/>
<feOffset dx="2" dy="2"/>
<feGaussianBlur stdDeviation="0.5"/>
<feComposite in2="hardAlpha" operator="arithmetic" k2="-1" k3="1"/>
<feColorMatrix type="matrix" values="0 0 0 0 0 0 0 0 0 0 0 0 0 0 0 0 0 0 0.75 0"/>
<feBlend mode="normal" in2="shape" result="effect1_innerShadow_3518_72"/>
</filter>
<filter id="filter4_i_3518_72" x="178.078" y="354.205" width="130.648" height="154.66" filterUnits="userSpaceOnUse" color-interpolation-filters="sRGB">
<feFlood flood-opacity="0" result="BackgroundImageFix"/>
<feBlend mode="normal" in="SourceGraphic" in2="BackgroundImageFix" result="shape"/>
<feColorMatrix in="SourceAlpha" type="matrix" values="0 0 0 0 0 0 0 0 0 0 0 0 0 0 0 0 0 0 127 0" result="hardAlpha"/>
<feOffset dx="2" dy="2"/>
<feGaussianBlur stdDeviation="0.5"/>
<feComposite in2="hardAlpha" operator="arithmetic" k2="-1" k3="1"/>
<feColorMatrix type="matrix" values="0 0 0 0 0 0 0 0 0 0 0 0 0 0 0 0 0 0 0.75 0"/>
<feBlend mode="normal" in2="shape" result="effect1_innerShadow_3518_72"/>
</filter>
<filter id="filter5_d_3518_72" x="493.43" y="711.977" width="1871.17" height="6.60195" filterUnits="userSpaceOnUse" color-interpolation-filters="sRGB">
<feFlood flood-opacity="0" result="BackgroundImageFix"/>
<feColorMatrix in="SourceAlpha" type="matrix" values="0 0 0 0 0 0 0 0 0 0 0 0 0 0 0 0 0 0 127 0" result="hardAlpha"/>
<feOffset dx="0.5" dy="0.5"/>
<feGaussianBlur stdDeviation="0.05"/>
<feComposite in2="hardAlpha" operator="out"/>
<feColorMatrix type="matrix" values="0 0 0 0 0 0 0 0 0 0 0 0 0 0 0 0 0 0 0.25 0"/>
<feBlend mode="normal" in2="BackgroundImageFix" result="effect1_dropShadow_3518_72"/>
<feBlend mode="normal" in="SourceGraphic" in2="effect1_dropShadow_3518_72" result="shape"/>
</filter>
</defs>
</svg>
